<svg xmlns="http://www.w3.org/2000/svg" viewBox="0 0 819.16 604.97"><defs><style>.cls-1{isolation:isolate;}.cls-2{fill:#e3f2ff;}.cls-3{fill:#bbdeff;}.cls-4,.cls-5{fill:#ff3445;}.cls-5{opacity:0.32;}.cls-11,.cls-5,.cls-6{mix-blend-mode:multiply;}.cls-6{fill:#afe1f5;}.cls-7{fill:#ffedca;}.cls-8{fill:#ffd67b;}.cls-11,.cls-9{fill:#f3be65;}.cls-10{fill:#894d16;}.cls-11,.cls-13{opacity:0.58;}.cls-12{fill:#fc5e79;}.cls-14{opacity:0.39;}.cls-15{opacity:0.15;}.cls-16{font-size:42.25px;fill:#1d85fc;font-family:GothicA1-Medium, Gothic A1 Medium;font-weight:500;}.cls-17,.cls-18{font-size:23px;}.cls-18{letter-spacing:0em;}.cls-19,.cls-20,.cls-21,.cls-22{fill:none;stroke:#9ccef7;stroke-linecap:round;stroke-linejoin:round;}.cls-19,.cls-21{stroke-width:2.16px;}.cls-20{stroke-width:2.26px;}.cls-21{stroke-dasharray:3.27 7.62;}.cls-22{stroke-width:2.02px;stroke-dasharray:3.05 7.11;}</style></defs><title>404</title><g class="cls-1"><g id="Layer_1" data-name="Layer 1"><path class="cls-2" d="M612.92,409.83a106.56,106.56,0,0,1-.6,11.25,87.08,87.08,0,0,1-99,77.09l-10.73-1.53a473.73,473.73,0,0,0-101-3.55l-59.77,4.29A130.32,130.32,0,0,1,207.2,403.2a51.35,51.35,0,0,1,11.66-48.93l1.94-2.1a24.75,24.75,0,1,0,31.07-33.59l4.15-4.49a50.05,50.05,0,0,1,66.82-6l1.94,1.46a48.59,48.59,0,0,0,51.39,4.81l1.54-.78a192.65,192.65,0,0,1,81.46-20.73,24.13,24.13,0,0,0-.65,5.61,24.75,24.75,0,1,0,49.5,0c0-.27,0-.53,0-.79a192.7,192.7,0,0,1,50.06,19.17A106.3,106.3,0,0,1,612.92,409.83Z" transform="translate(-8.42 -7.42)"/><circle class="cls-2" cx="353.94" cy="286.46" r="23.17" transform="translate(-22.56 547.07) rotate(-75.05)"/><circle class="cls-2" cx="573.35" cy="291.53" r="12.5"/><circle class="cls-2" cx="617.85" cy="372.87" r="4.5"/><ellipse class="cls-3" cx="408.7" cy="493.78" rx="190" ry="7.25"/><path class="cls-4" d="M573.43,443.92V414.3H539.82l.19,29.62H513.8l39-82.24H518L484.82,429.8l-8.43,17.31v24.62h63.43v30.42h33.61V471.73h18V443.92Z" transform="translate(-8.42 -7.42)"/><path class="cls-5" d="M495.49,471.73a29.3,29.3,0,0,0-2.09-14.22,45.7,45.7,0,0,1-2.68,14.22H476.39V447.11l8.43-17.31a34.12,34.12,0,0,1,5.95,10.85c.25.67.47,1.34.68,2l0,.08c.37,1.23.69,2.47,1,3.7a.13.13,0,0,0,0,.06c0,.13.05.25.08.37.07.37.16.74.21,1.11s.13.73.19,1.1c0,.06,0,.14,0,.2s0,.06,0,.09c.06.43.12.86.17,1.29v.08a.09.09,0,0,1,0,.05v0s7.12,7,7.16,21Z" transform="translate(-8.42 -7.42)"/><path class="cls-4" d="M309.85,361.67l-39,82.25H297l-.19-29.62h33.61v29.62h18v27.81h-18v30.42H296.85V471.73H233.42V447.11L275,361.67Z" transform="translate(-8.42 -7.42)"/><path class="cls-4" d="M413.74,346.35c-39.25,0-60.63,27.79-60.63,78.28,0,16.27,2.22,30.21,6.55,41.62,9.09,24,27.48,36.87,54.08,36.87,15,0,27.39-4.17,37-12.19a49.25,49.25,0,0,0,4.74-4.52,53.64,53.64,0,0,0,4.16-5.12c.63-.88,1.25-1.78,1.83-2.72,8.05-12.66,12.4-30,12.68-51.64,0-.76,0-1.53,0-2.3C474.16,374.14,452.55,346.35,413.74,346.35ZM392,436.88c-.21-3.78-.31-7.85-.31-12.25,0-35.5,6.39-50.06,22.05-50.06,13.87,0,20.43,11.74,21.62,39.83.15,3.2.21,6.6.21,10.23,0,35.27-6.38,50.05-21.83,50.05C400,474.68,393.43,463.36,392,436.88Z" transform="translate(-8.42 -7.42)"/><path class="cls-6" d="M459.63,481.29a53.64,53.64,0,0,1-4.16,5.12c-11.94,1.84-28.62,7.1-29.84-3.44a4.4,4.4,0,0,1,0-1.84C426.56,476.55,447.94,481.84,459.63,481.29Z" transform="translate(-8.42 -7.42)"/><path class="cls-6" d="M474.14,426.93c-.28,21.62-4.63,39-12.67,51.64-6.44.3-20.55-3.3-26.77-.08a1.17,1.17,0,0,1-.3.14c-.27.12-.54.2-.81.29l-.11,0-.11,0-.26.06-.27.06-.23,0-.25.05-.42.08h0l-.45.08h0c-.88.13-1.76.21-2.64.27h0l-.66.05h0c-9.57.55-22.71.86-31.52-3.29l-2.31.05h-.34l-.9,0h-.32A71.7,71.7,0,0,1,370.42,473c-.65-.19-1.28-.45-1.93-.67l-.68-.26-.16-.06c-.56-.22-1.1-.47-1.66-.7a29.28,29.28,0,0,1-2.66-1.4l-.11-.06c-.41-.25-.8-.52-1.19-.8l-.29-.23-.12-.09-.43-.37-.25-.24a4.65,4.65,0,0,1-.72-.82l-.07-.11c-2.23-2.54.89-9.68,2.11-11.75,0-.09.07-.18.1-.25-2.25-7.23-1-11.5-1-11.5,3.39.84,6.12,4.16,6.12,4.16,2.38-2.92,7.51-4.21,11.09-4.38-.05-5.51,1.15-6.62,1.15-6.62,9.34,3,2.18,7.86,12.31,0,.85,15.76,5.24,43.73,27.81,36.88,19.89-6,16.2-44.79,15.56-59.36,14-3.07,30.31-.1,38.77,12.53C473.86,448.55,470.75,421.87,474.14,426.93Z" transform="translate(-8.42 -7.42)"/><path class="cls-7" d="M474.34,457.49A16.66,16.66,0,0,1,473,460a17.67,17.67,0,0,1-1.45,1.93A18.25,18.25,0,0,1,468,465.1c-9.69,6.69-24.83,4.41-30.71,5-.81.07-2.08.15-3.7.23l-1,0-5.58.21c-10.26.36-24.95.71-32.87.88l-5.58.12h-.6a78.47,78.47,0,0,1-22.21-3.47,29.86,29.86,0,0,1-8.19-3.89,10,10,0,0,1-1.55-1.41c-.15-.19-.29-.37-.41-.55l-.13-.23c-2.2-4,2.21-11.24,2.43-11.61h0c-2.28-7.26-1.05-11.55-1.05-11.55,3.39.84,6.12,4.16,6.12,4.16a7.77,7.77,0,0,1,1.79-1.57,11.87,11.87,0,0,1,1.83-1,17.85,17.85,0,0,1,2.14-.79,26.83,26.83,0,0,1,3.28-.77c1.22-.21,2.05-.27,2.05-.27-.05-5.51,1.65-7.76,1.65-7.76,2.45.78,4.54,6.45,5.42,6.39.7,0,1.8-2,10.2-8.08l1.88-1.33c1.63-1.14,3.48-2.4,5.61-3.8l.86-.57,1.4-.89c1.8-1.16,3.66-2.29,5.57-3.37.85-.49,1.72-1,2.6-1.45q2.14-1.15,4.35-2.21c.72-.34,1.43-.67,2.15-1,1.28-.58,2.58-1.12,3.88-1.63,1.76-.69,3.53-1.32,5.33-1.87s3.88-1.1,5.85-1.51h0l.42-.08a51.36,51.36,0,0,1,9-1l.55,0a43.16,43.16,0,0,1,6.31.36,41.85,41.85,0,0,1,8.69,2.06,28.44,28.44,0,0,1,14.39,12,38.57,38.57,0,0,1,2.94,5.63c.34.78.65,1.58.93,2.38a44,44,0,0,1,2.43,11.26A31.79,31.79,0,0,1,474.34,457.49Z" transform="translate(-8.42 -7.42)"/><path class="cls-8" d="M473,460a17.67,17.67,0,0,1-1.45,1.93c-9,10.48-27.57,7.48-34.22,8.1-.81.07-2.08.15-3.7.23l-1,0-5.58.21c-10.26.36-24.95.71-32.87.88l-5.58.12h-.6a78.47,78.47,0,0,1-22.21-3.47,29.86,29.86,0,0,1-8.19-3.89,10,10,0,0,1-1.55-1.41c-.15-.19-.29-.37-.41-.55-1.17-4.1,2.39-12.13,2.39-12.13-2.28-7.26-.61-10.1-.61-10.1,3.39.84,6.12,4.16,6.12,4.16a7.5,7.5,0,0,1,1.79-1.56,11.92,11.92,0,0,1,1.83-1,17.85,17.85,0,0,1,2.14-.79,28.83,28.83,0,0,1,3.28-.77c1.22-.2,2.05-.27,2.05-.27-.06-5.51,1.48-7.73,1.48-7.73,2.44.78,4.71,6.42,5.59,6.37.7,0,1.8-2,10.2-8.08l1.88-1.34c1.63-1.14,3.48-2.4,5.61-3.8l.86-.57,1.4-.89c1.8-1.16,3.66-2.28,5.56-3.37q1.29-.74,2.61-1.44,3.18-1.73,6.5-3.21c1.28-.58,2.58-1.12,3.88-1.63,1.76-.69,3.53-1.32,5.33-1.87,2.08-.63,4.18-1.17,6.3-1.59a51.85,51.85,0,0,1,9.52-1,43.22,43.22,0,0,1,6.32.36A41.85,41.85,0,0,1,456.3,412a28.44,28.44,0,0,1,14.39,12,38.32,38.32,0,0,1,2.42,4.46C477.81,439.5,477.81,452.61,473,460Z" transform="translate(-8.42 -7.42)"/><path class="cls-9" d="M483.51,461.86c0,14.06-13.54,19.91-31.64,23.3-15.84,3-23.2.84-24.09-3.24a4.56,4.56,0,0,1,0-1.84c1-5.21,20-2.6,32-4s18.1-5.73,18.88-14.33a28.57,28.57,0,0,0-2.21-14.44l-.12-5.89,0-.62S483.51,447.8,483.51,461.86Z" transform="translate(-8.42 -7.42)"/><path class="cls-8" d="M480.77,458.73c0,14.06-13.73,20.68-31.82,24.06-10.55,2-20.38,2-21.17-.87a4.56,4.56,0,0,1,0-1.84c1-5.21,20-2.6,32-4s18.1-5.73,18.88-14.33a28.57,28.57,0,0,0-2.21-14.44l-.12-5.89c.2.34.39.7.6,1.08A34.39,34.39,0,0,1,480.77,458.73Z" transform="translate(-8.42 -7.42)"/><path class="cls-8" d="M481.81,461.92c0,14.06-13.41,17.51-31.5,20.89-10.55,2-18.51.91-22.13-.7a5.07,5.07,0,0,1,.1-1.15c1-5.21,20-2.6,32-4s18.09-5.72,18.88-14.32A32.68,32.68,0,0,0,476.6,447l-.25-6.23C480.85,445.43,481.81,454.43,481.81,461.92Z" transform="translate(-8.42 -7.42)"/><path class="cls-9" d="M398.11,438.68a21.45,21.45,0,0,0-6.79-9.53l1.88-1.33A25.38,25.38,0,0,1,398.11,438.68Z" transform="translate(-8.42 -7.42)"/><path class="cls-9" d="M406.65,435.17A25.58,25.58,0,0,0,398.81,424l.86-.57,1.4-.89A30.43,30.43,0,0,1,406.65,435.17Z" transform="translate(-8.42 -7.42)"/><path class="cls-9" d="M415.38,431c-2.58-6.53-6.11-10-8.74-11.82.85-.49,1.72-1,2.6-1.45C414.09,423.23,415.38,431,415.38,431Z" transform="translate(-8.42 -7.42)"/><path class="cls-9" d="M427.77,430c-3.6-9.11-8.68-13.48-12-15.48,1.28-.58,2.58-1.12,3.88-1.63C426,419.66,427.71,429.65,427.77,430Z" transform="translate(-8.42 -7.42)"/><path class="cls-9" d="M442.2,432.17c-5.28-13.37-13-18.95-17.25-21.13,2.08-.63,4.18-1.17,6.3-1.59C439.79,418.31,442.11,431.68,442.2,432.17Z" transform="translate(-8.42 -7.42)"/><path class="cls-9" d="M452.43,431.44c-2.35-12.71-7.84-19.62-11.65-23a43.16,43.16,0,0,1,6.31.36C452.81,419,452.43,431.44,452.43,431.44Z" transform="translate(-8.42 -7.42)"/><path class="cls-9" d="M387.94,471.54c-16.45-.37-28.65-4.87-31.95-8.77l1.8-1.73s0,.92,2.37,1.37,0-4.69,1.37-6.54a4.54,4.54,0,0,1,7.1-.62c2.76,2.6,3.27,13,18.69,12Z" transform="translate(-8.42 -7.42)"/><path class="cls-9" d="M473,460a17.67,17.67,0,0,1-1.45,1.93c-9,10.48-27.57,7.48-34.22,8.1-.81.07-2.08.15-3.7.23l-1,0-5.58.21c-10.26.36-24.95.71-32.87.88l-5.58.12h-.6a78.47,78.47,0,0,1-22.21-3.47,153.19,153.19,0,0,0,20.37.56c8.59-.59,29.39-19.43,45-16.21s49-8,39.44-28.71l-.38-.86C477.66,434.67,478.67,451.29,473,460Z" transform="translate(-8.42 -7.42)"/><path class="cls-9" d="M428.22,470.55c-14.68.52-38.44,1-38.44,1h-.33a7.08,7.08,0,0,1,.69-11.66,17.55,17.55,0,0,1,10.67-2.59c10,.85,11.72,9.11,20.44,10.87C425,468.93,427.1,469.75,428.22,470.55Z" transform="translate(-8.42 -7.42)"/><path class="cls-9" d="M432.57,470.34l-5.58.21c-10.26.36-24.95.71-32.87.88a7.05,7.05,0,0,1-.14-12.19,17.62,17.62,0,0,1,10.67-2.59c10,.85,11.72,9.11,20.44,10.87C429.55,468.42,431.61,469.39,432.57,470.34Z" transform="translate(-8.42 -7.42)"/><path class="cls-7" d="M431,472.73c0,.32-.23.62-.74.88-1.2.64-3.79,1.06-7.22,1.22-2.26.1-4.9.08-7.73-.08-6-.35-16.57-.09-23.24-3.28a7.05,7.05,0,0,1-.58-12.43,17.69,17.69,0,0,1,10.67-2.59c10,.85,11.72,9.12,20.44,10.88l.78.16C431.25,469.21,430.82,471.15,431,472.73Z" transform="translate(-8.42 -7.42)"/><path class="cls-8" d="M430.21,473.61a1.34,1.34,0,0,1-.24.12l-.27.11a4.29,4.29,0,0,1-.47.16l-.35.1c-.26.07-.55.13-.86.19l-.29.06c-.71.13-1.51.23-2.4.32l-1,.08-.68.05-.62,0c-2.26.1-4.9.08-7.73-.08-6-.35-16.57-.09-23.24-3.28a7.06,7.06,0,0,1-3.31-9.46,7.35,7.35,0,0,1,2-1.8,17.67,17.67,0,0,1,10.67-2.59c10,.85,11.71,9.12,20.43,10.88l.79.16c.44.09.86.19,1.25.29C430.07,470.49,430.13,472.18,430.21,473.61Z" transform="translate(-8.42 -7.42)"/><path class="cls-9" d="M473.44,446.17A56.8,56.8,0,0,1,471.51,462c-9,10.48-27.57,7.48-34.22,8.1-.81.07-2.08.15-3.7.23a5.76,5.76,0,0,1,.69-2.35c1.08-2.05,12.69-2.54,12-4.1s-5.85-2.44-5.85-12.79v-.64a15.9,15.9,0,0,1,14.39-15.17C462.28,434.51,473.44,435.24,473.44,446.17Z" transform="translate(-8.42 -7.42)"/><path class="cls-7" d="M476.61,446.17c0,.44,0,.87,0,1.3s0,.84,0,1.25c-.61,12.45-5.61,20.3-9.82,23.1a9.66,9.66,0,0,1-1.21.67l-.31.12-.45.15c-.17,0-.34.09-.51.12h-.06a38.75,38.75,0,0,1-4.33.64h-.09c-4.87.45-10.56.36-16.45.36a13.65,13.65,0,0,1-3.74-.44c-3.71-1.07-3.58-3.28-2.12-5.51s12.7-2.55,12-4.11-5.86-2.44-5.86-12.79c0-.22,0-.43,0-.64A15.86,15.86,0,0,1,458,435.25c3.77-.38,8.48-.38,12.21,1.13h0a11.65,11.65,0,0,1,2.7,1.51c.22.18.44.36.64.55s.35.32.51.49l.46.53a6.58,6.58,0,0,1,.38.54l.07.09.27.43a7.56,7.56,0,0,1,.45.9,5.36,5.36,0,0,1,.23.58.08.08,0,0,1,0,.06c.09.24.17.48.24.74s.12.51.18.77a.43.43,0,0,1,0,.05c0,.15.05.31.08.46l.06.5C476.57,445.09,476.61,445.62,476.61,446.17Z" transform="translate(-8.42 -7.42)"/><path class="cls-8" d="M476.61,446.17c0,.44,0,.87,0,1.3s0,.84,0,1.25c-.61,12.45-5.61,20.3-9.82,23.1a9.66,9.66,0,0,1-1.21.67l-.31.12-.45.15c-.17,0-.34.09-.51.12h-.06c-.33.1,1,.05.42.13-1.43.22-3,.39-4.75.51h-.09c-5.12.36-11.16.36-16.45.36a13.65,13.65,0,0,1-3.74-.44c-2.64-1.24-2-3.69-1.19-5.18,1.08-2,12.69-2.53,12-4.1s-5.86-2.44-5.86-12.78c0-.22,0-.44,0-.65a15.89,15.89,0,0,1,14.38-15.17,29.09,29.09,0,0,1,11.28.8h0a11.65,11.65,0,0,1,2.7,1.51c.22.18.44.36.64.55s.35.32.51.49l.46.53a6.58,6.58,0,0,1,.38.54l.07.09.27.43a7.56,7.56,0,0,1,.45.9,5.36,5.36,0,0,1,.23.58.08.08,0,0,1,0,.06c.09.24.17.48.24.74s.12.51.18.77a.43.43,0,0,1,0,.05c0,.15.05.31.08.46l.06.5C476.57,445.09,476.61,445.62,476.61,446.17Z" transform="translate(-8.42 -7.42)"/><path class="cls-9" d="M357.54,464.18a10,10,0,0,1-1.55-1.41,5.51,5.51,0,0,1-.54-.78c-2.2-4,2.21-11.24,2.43-11.61-.14.36-2.85,7.22-.09,10.66A2.29,2.29,0,0,1,357.54,464.18Z" transform="translate(-8.42 -7.42)"/><path class="cls-9" d="M358.52,448.51s-1.12-5.22-.68-7.86a6.28,6.28,0,0,1,3.9,3.23S358.91,447.2,358.52,448.51Z" transform="translate(-8.42 -7.42)"/><path class="cls-9" d="M376.09,432.36s-1.17,4.14-.92,6.44a23,23,0,0,1,4.93-.59S378.14,434.11,376.09,432.36Z" transform="translate(-8.42 -7.42)"/><path class="cls-10" d="M357.8,456.28a2.56,2.56,0,0,1,.2-.86,2.35,2.35,0,0,1,.18-.4,2.88,2.88,0,0,1,.27-.41,4.17,4.17,0,0,1,.35-.4,3.68,3.68,0,0,1,.44-.34,2.38,2.38,0,0,1,.5-.26,2,2,0,0,1,.53-.14,1.77,1.77,0,0,1,.51,0H361l.21.05a1.71,1.71,0,0,1,.36.1,1.91,1.91,0,0,1,.25.13,1.72,1.72,0,0,1,.21.12l-.24,0-.27,0c-.1,0-.21,0-.33,0a2.74,2.74,0,0,0-.37.08,1.94,1.94,0,0,0-.39.12l-.2.07-.19.1a2.93,2.93,0,0,0-.39.21c-.13.08-.24.18-.36.26s-.24.19-.34.29l-.31.3c-.1.09-.18.19-.27.28Z" transform="translate(-8.42 -7.42)"/><path class="cls-10" d="M366.34,452.69a1.62,1.62,0,0,1,.18-.24,2.11,2.11,0,0,1,.26-.25,3.12,3.12,0,0,1,.38-.27,3,3,0,0,1,.51-.25,3.26,3.26,0,0,1,.6-.17,3.62,3.62,0,0,1,.67-.07,4.12,4.12,0,0,1,.7.05,5.06,5.06,0,0,1,.67.17,5.56,5.56,0,0,1,.61.25,5.29,5.29,0,0,1,.53.31,5.36,5.36,0,0,1,.43.33,1.69,1.69,0,0,1,.34.3l.24.26.19.24-.29-.11c-.18-.07-.41-.2-.71-.31-.15-.06-.31-.12-.47-.2l-.53-.18a4.58,4.58,0,0,0-.56-.16c-.19-.07-.39-.08-.58-.13s-.39,0-.58-.07-.39,0-.57,0l-.54.05-.48.1A5.37,5.37,0,0,0,366.34,452.69Z" transform="translate(-8.42 -7.42)"/><path class="cls-10" d="M363.09,456.13a.68.68,0,0,0-.12.91c.39.57,1.26,1.44,1.88,1.26s.83-2,.6-2.46S364.05,455.32,363.09,456.13Z" transform="translate(-8.42 -7.42)"/><rect class="cls-10" x="365.01" y="457.74" width="0.39" height="2.55" transform="translate(-159.84 173.8) rotate(-23.23)"/><path class="cls-10" d="M362.94,459.36a4.18,4.18,0,0,0,.8.56,3.37,3.37,0,0,0,1,.36,2.07,2.07,0,0,0,.61,0l.1,0,.07,0,.14,0a1.81,1.81,0,0,0,.31-.18,2.62,2.62,0,0,0,.44-.44,3.63,3.63,0,0,0,.33-.47,6.48,6.48,0,0,0,.47-.89,6.19,6.19,0,0,0,.32-.93l-.15.23c-.08.15-.22.35-.37.59s-.34.53-.55.81-.22.28-.34.42a2.26,2.26,0,0,1-.39.37,1.4,1.4,0,0,1-.18.12l-.14.05-.06,0h0a2.18,2.18,0,0,1-.51,0,5.5,5.5,0,0,1-.93-.23l-.65-.25Z" transform="translate(-8.42 -7.42)"/><path class="cls-11" d="M440.68,412.39l-1.76,51.35s-9.88,5.57-11.47,4.89a46.92,46.92,0,0,0-6.17-1.57s23.61-50.15-7.69-51.53c.72-.34,1.43-.67,2.15-1,1.28-.58,2.58-1.12,3.88-1.63,1.76-.69,3.53-1.32,5.33-1.87s3.88-1.1,5.85-1.51h0c4.95-.65,8.7-1.09,9.4-1.1Z" transform="translate(-8.42 -7.42)"/><path class="cls-12" d="M472.9,404.77c-12.73,0-25.46-.58-38.2.23a191.72,191.72,0,0,1,.87,19.63c0,21.46-2.79,36.42-8.12,44a17.32,17.32,0,0,1,2.11,1.09,8.51,8.51,0,0,1,.8.71,4.47,4.47,0,0,1,.58,2.39c.9.42,1.64,4.36,1.64,4.36a34.17,34.17,0,0,1,3.92-.42c4.59-.3,9.62-.16,13.66-.3,4.75-.17,8.74-.32,13.1-.86,6.37-12.55,10.9-31.18,10.9-51A149.12,149.12,0,0,0,472.9,404.77Z" transform="translate(-8.42 -7.42)"/><path class="cls-10" d="M356.42,427.65l.51,1.18-1.44,4.5,3-1.29.65,1.5-5.42,2.36-.52-1.19,1.44-4.5-2.76,1.2-.65-1.5Z" transform="translate(-8.42 -7.42)"/><path class="cls-10" d="M364.6,412.89l.14,1.29L362,418l3.22-.34.17,1.63-5.88.61-.13-1.29,2.73-3.85-3,.31-.17-1.64Z" transform="translate(-8.42 -7.42)"/><g class="cls-13"><path class="cls-10" d="M354.53,399.23l.1,1-2.08,2.94,2.45-.26.13,1.24-4.49.47-.1-1,2.09-2.95-2.29.24-.13-1.24Z" transform="translate(-8.42 -7.42)"/></g><g class="cls-14"><path class="cls-10" d="M366.13,386l-.18.71-2.2,1.53,1.79.45-.23.89-3.26-.8.18-.71,2.2-1.54-1.66-.41.23-.9Z" transform="translate(-8.42 -7.42)"/></g><g class="cls-15"><path class="cls-10" d="M353.66,379.11l.23.7-1,2.48,1.75-.59.29.87-3.18,1.08-.24-.7,1-2.48-1.62.55-.3-.88Z" transform="translate(-8.42 -7.42)"/></g><text class="cls-16" transform="translate(150.6 532.58)">Oops!.. <tspan class="cls-17" x="154.01" y="0">Something we</tspan><tspan class="cls-18" x="303.38" y="0">n</tspan><tspan class="cls-17" x="316.36" y="0">t wrong here!</tspan></text><line class="cls-19" x1="43.52" y1="291.55" x2="132.7" y2="291.55"/><line class="cls-19" x1="154.11" y1="291.55" x2="173.15" y2="291.55"/><line class="cls-19" x1="27.37" y1="266.44" x2="187.03" y2="266.44"/><line class="cls-19" x1="14.22" y1="266.44" x2="1.08" y2="266.44"/><line class="cls-19" x1="27.37" y1="242.6" x2="80.37" y2="242.6"/><line class="cls-19" x1="94.57" y1="242.6" x2="205.89" y2="242.6"/><line class="cls-19" x1="673.94" y1="490.7" x2="769.39" y2="490.7"/><line class="cls-19" x1="784.91" y1="490.7" x2="798.71" y2="490.7"/><line class="cls-19" x1="693" y1="465.59" x2="818.08" y2="465.59"/><line class="cls-19" x1="683.47" y1="465.59" x2="673.94" y2="465.59"/><line class="cls-19" x1="673.94" y1="441.75" x2="731.44" y2="441.75"/><line class="cls-19" x1="741.73" y1="441.75" x2="784.91" y2="441.75"/><line class="cls-19" x1="715.6" y1="286.1" x2="715.6" y2="265.65"/><line class="cls-19" x1="701.32" y1="292.02" x2="686.86" y2="277.56"/><line class="cls-19" x1="695.41" y1="306.3" x2="674.95" y2="306.3"/><line class="cls-19" x1="701.32" y1="320.57" x2="686.86" y2="335.03"/><line class="cls-19" x1="715.6" y1="326.49" x2="715.6" y2="346.94"/><line class="cls-19" x1="729.87" y1="320.57" x2="744.34" y2="335.03"/><line class="cls-19" x1="735.79" y1="306.3" x2="756.24" y2="306.3"/><line class="cls-19" x1="729.87" y1="292.02" x2="744.34" y2="277.56"/><line class="cls-19" x1="74.11" y1="387.95" x2="74.11" y2="373.16"/><line class="cls-19" x1="63.79" y1="392.22" x2="53.33" y2="381.77"/><line class="cls-19" x1="59.51" y1="402.54" x2="44.73" y2="402.54"/><line class="cls-19" x1="63.79" y1="412.86" x2="53.33" y2="423.31"/><line class="cls-19" x1="74.11" y1="417.14" x2="74.11" y2="431.92"/><line class="cls-19" x1="84.43" y1="412.86" x2="94.88" y2="423.31"/><line class="cls-19" x1="88.7" y1="402.54" x2="103.49" y2="402.54"/><line class="cls-19" x1="84.43" y1="392.22" x2="94.88" y2="381.77"/><line class="cls-19" x1="474.17" y1="82.58" x2="474.17" y2="67.8"/><line class="cls-19" x1="463.85" y1="86.86" x2="453.39" y2="76.4"/><line class="cls-19" x1="459.57" y1="97.18" x2="444.79" y2="97.18"/><line class="cls-19" x1="463.85" y1="107.5" x2="453.39" y2="117.95"/><line class="cls-19" x1="474.17" y1="111.77" x2="474.17" y2="126.56"/><line class="cls-19" x1="484.49" y1="107.5" x2="494.94" y2="117.95"/><line class="cls-19" x1="488.76" y1="97.18" x2="503.54" y2="97.18"/><line class="cls-19" x1="484.49" y1="86.86" x2="494.94" y2="76.4"/><polyline class="cls-19" points="187.03 206.62 187.03 142.64 519.59 142.64 519.59 284.79"/><polyline class="cls-19" points="402.38 97.18 402.38 177.27 622.91 177.27 622.91 213.72"/><path class="cls-19" d="M203.38,222a7.94,7.94,0,1,1-7.93-7.94A7.93,7.93,0,0,1,203.38,222Z" transform="translate(-8.42 -7.42)"/><circle class="cls-19" cx="402.38" cy="89.24" r="7.94"/><path class="cls-19" d="M639.26,229.91a7.94,7.94,0,1,1-7.93-7.93A7.94,7.94,0,0,1,639.26,229.91Z" transform="translate(-8.42 -7.42)"/><path class="cls-19" d="M536,301.46a7.94,7.94,0,1,1-7.94-7.93A7.94,7.94,0,0,1,536,301.46Z" transform="translate(-8.42 -7.42)"/><line class="cls-19" x1="135.31" y1="452.97" x2="116.54" y2="471.75"/><line class="cls-19" x1="116.54" y1="452.97" x2="135.31" y2="471.75"/><line class="cls-19" x1="144.7" y1="180.31" x2="125.92" y2="199.09"/><line class="cls-19" x1="125.92" y1="180.31" x2="144.7" y2="199.09"/><line class="cls-19" x1="753.72" y1="393.15" x2="734.95" y2="411.93"/><line class="cls-19" x1="734.95" y1="393.15" x2="753.72" y2="411.93"/><path class="cls-20" d="M229.28,80.57a24.44,24.44,0,0,0-15.72,5.72A32.87,32.87,0,0,0,150,91.13,19.59,19.59,0,1,0,142,129.38v.19h87.28a24.5,24.5,0,1,0,0-49Z" transform="translate(-8.42 -7.42)"/><path class="cls-19" d="M683.47,205.18a17.72,17.72,0,0,1,11.42,4.16,23.88,23.88,0,0,1,46.21,3.51,14.5,14.5,0,0,1,3.92-.55,14.23,14.23,0,0,1,1.85,28.34v.14h-63.4a17.8,17.8,0,0,1,0-35.6Z" transform="translate(-8.42 -7.42)"/><path class="cls-19" d="M770.89,541.83a14.87,14.87,0,0,0-9.58,3.48,20,20,0,0,0-38.75,3,11.93,11.93,0,1,0-4.85,23.3v.12h53.18a14.93,14.93,0,0,0,0-29.85Z" transform="translate(-8.42 -7.42)"/><path class="cls-19" d="M49.16,510.33a17.77,17.77,0,0,1,11.43,4.16,23.87,23.87,0,0,1,46.2,3.51,14.5,14.5,0,0,1,3.92-.56,14.24,14.24,0,0,1,1.86,28.35v.13H49.16a17.8,17.8,0,0,1,0-35.59Z" transform="translate(-8.42 -7.42)"/><path class="cls-21" d="M253.78,68.82s112-91.3,264.13-49.24C677.74,63.76,709.74,177.73,709.74,177.73" transform="translate(-8.42 -7.42)"/><path class="cls-22" d="M84.7,334.18c-43.42,6.73-65.24,98.87-16.41,135.44" transform="translate(-8.42 -7.42)"/><path class="cls-21" d="M631.33,600s74.36,32.51,107-12.85" transform="translate(-8.42 -7.42)"/><line class="cls-19" x1="269.12" y1="222.49" x2="269.12" y2="175.53"/><line class="cls-19" x1="257.78" y1="222.49" x2="257.78" y2="199.09"/><line class="cls-19" x1="441.72" y1="233.35" x2="441.72" y2="199.01"/><line class="cls-19" x1="428.84" y1="230.42" x2="428.84" y2="216.18"/><line class="cls-19" x1="417.42" y1="230.42" x2="417.42" y2="206.62"/><line class="cls-19" x1="280.01" y1="222.49" x2="280.01" y2="199.01"/><line class="cls-19" x1="591.28" y1="229.02" x2="591.28" y2="218.52"/><line class="cls-19" x1="579.95" y1="229.02" x2="579.95" y2="203.44"/><line class="cls-19" x1="602.18" y1="229.02" x2="602.18" y2="210.75"/></g></g></svg>