<svg id="Black" enable-background="new 0 0 160 160" height="160" viewBox="0 0 160 160" width="160" xmlns="http://www.w3.org/2000/svg"><g><path d="m80.01 45c-19.28 0-34.97 15.7-34.97 35s15.69 35 34.97 35 34.96-15.7 34.96-35-15.68-35-34.96-35z"/><path d="m80 0c-44.11 0-80 35.89-80 80s35.89 80 80 80c44.12 0 80-35.89 80-80s-35.88-80-80-80zm60.44 115.26-21.45-12.87c-3.97 6.89-9.7 12.63-16.58 16.61l12.85 21.43c-10.36 6.07-22.4 9.57-35.25 9.57v-25c-8.11 0-15.72-2.17-22.3-5.95l-12.32 21.75c-10.9-6.22-19.96-15.29-26.19-26.18l21.77-12.33c-3.76-6.58-5.93-14.18-5.93-22.29h-25.03v.31c-.01-.1-.01-.2-.01-.31 0-12.77 3.46-24.74 9.45-35.05l21.77 12.34c3.91-6.66 9.47-12.23 16.13-16.13l-12.02-21.93c10.23-5.86 22.06-9.23 34.67-9.23h.01v25c8.31 0 16.09 2.28 22.77 6.22l12.55-21.61c10.58 6.21 19.38 15.11 25.47 25.77l-21.75 12.33c3.76 6.58 5.92 14.18 5.92 22.29h25.03c0 6.43-.87 12.65-2.5 18.56-1.64 5.92-4.02 11.52-7.06 16.7z"/></g></svg>