<svg id="Layer_1" height="512" viewBox="0 0 48 48" width="512" xmlns="http://www.w3.org/2000/svg" data-name="Layer 1"><path d="m43.556 7.321-4.713-.663a5.938 5.938 0 0 1 .157 1.342v29a6.006 6.006 0 0 1 -6 6h-1.428l6.835.961a4 4 0 0 0 4.518-3.405l4.036-28.718a4 4 0 0 0 -3.405-4.517z"/><path d="m33 4h-6.593a5.985 5.985 0 0 1 2.36 3.941l4.033 28.718a5.96 5.96 0 0 1 -1.075 4.341h1.275a4 4 0 0 0 4-4v-29a4 4 0 0 0 -4-4z"/><path d="m30.822 36.938-4.036-28.718a4 4 0 0 0 -4.517-3.4l-17.825 2.501a4 4 0 0 0 -3.4 4.517l4.031 28.718a4 4 0 0 0 4.518 3.405l17.825-2.506a4 4 0 0 0 3.404-4.517zm-21.866-22.279a1 1 0 0 1 -1.391-.259l-.765-1.113-.431 1.284a1 1 0 1 1 -1.9-.637l1.068-3.179a1.04 1.04 0 0 1 1.771-.249l1.9 2.762a1 1 0 0 1 -.252 1.391zm12.027 9.957-3.027 4.017a2 2 0 0 1 -2.8.393l-4.018-3.026a3.515 3.515 0 0 1 -.692-4.922 3.516 3.516 0 0 1 4.923-.691 3.515 3.515 0 1 1 5.614 4.23zm6.409 10.226-1.068 3.18a1 1 0 0 1 -1.772.249l-1.9-2.763a1 1 0 0 1 1.648-1.134l.768 1.115.431-1.284a1 1 0 0 1 1.9.637z"/></svg>