<svg id="Capa_1" enable-background="new 0 0 591.793 591.793" height="512" viewBox="0 0 591.793 591.793" width="512" xmlns="http://www.w3.org/2000/svg"><g><g id="_72_Dice"><path d="m320.232 288.578 229.47-144.723c-8.674-13.502-20.456-24.729-34.36-32.742l-169.155-97.634c-31.118-17.972-69.462-17.972-100.581 0l-169.156 97.634c-12.21 7.055-22.798 16.602-31.075 28.02l237.369 149.446c11.463 7.185 26.025 7.185 37.488-.001zm-63.756-156.245c-.007-21.771 17.637-39.426 39.409-39.433 21.771-.007 39.426 17.637 39.433 39.409s-17.637 39.426-39.409 39.433c-.004 0-.008 0-.012 0-21.767-.001-39.415-17.643-39.421-39.409z"/><path d="m293.662 308.288c-6.715-1.033-13.147-3.429-18.901-7.041l-237.26-149.385c-7.456 14.327-11.35 30.239-11.353 46.389v195.328c.009 35.934 19.183 69.135 50.302 87.102l169.156 97.658c14.635 8.459 31.168 13.087 48.068 13.454 0 0 0-.06 0-.097zm-206.33 138.117c-15.773-11.618-28.152-37.561-28.152-58.129s12.44-28.986 28.213-18.406c16.256 10.87 29.807 37.512 29.807 59.179s-13.612 29.373-29.868 17.356zm120.919-57.331c-15.773-11.667-28.213-37.561-28.213-58.129s12.44-28.986 28.213-18.406c16.256 10.87 29.795 37.512 29.795 59.24 0 21.727-13.539 29.312-29.795 17.295z"/><path d="m556.768 157.007-228.553 144.24c-5.948 3.741-12.62 6.182-19.577 7.162v282.611c13.234-1.686 25.998-5.993 37.549-12.669l169.156-97.67c31.124-17.969 50.298-51.176 50.302-87.114v-195.316c-.004-14.222-3.03-28.28-8.877-41.244zm-183.166 376.488c-15.773 10.531-28.213 2.162-28.213-18.406s12.44-46.462 28.213-58.128c16.256-12.077 29.795-4.432 29.795 17.295s-13.538 48.382-29.795 59.239zm0-143.286c-15.773 10.531-28.213 2.162-28.213-18.406s12.44-46.462 28.213-58.129c16.256-12.029 29.783-4.432 29.783 17.246s-13.526 48.432-29.783 59.289zm132.26 57.706c-15.773 10.531-28.213 2.174-28.213-18.406s12.44-46.462 28.213-58.129c16.256-12.017 29.795-4.432 29.795 17.295 0 21.728-13.539 48.382-29.795 59.24zm0-143.286c-15.773 10.592-28.213 2.138-28.213-18.394s12.44-46.462 28.213-58.129c16.256-12.077 29.795-4.42 29.795 17.295s-13.539 48.37-29.795 59.228z"/></g></g></svg>