<svg id="Glyph" enable-background="new 0 0 64 64" height="512" viewBox="0 0 64 64" width="512" xmlns="http://www.w3.org/2000/svg"><g><path d="m28.099 38.06-.05.04c0 1.72-.17 3.45-.66 5.11-.479 1.689-1.3 3.28-1.729 4.99-.82 3.34.12 6.899 1.75 9.84-3.54-1.2-6.92-2.931-9.46-5.73-2.221-2.45-3.79-5.38-4.5-8.609-.931-4.24-.29-8.431 1.52-12.33.86-1.841 1.83-3.641 2.46-5.58.62-1.92 1-3.92 1.351-5.9 1.29 1.95 2.239 4.101 2.8 6.37 4.39-5.88 6.79-13.01 6.85-20.34 6.75 3.859 11.44 10.51 12.84 18.16 1.801-2.4 2.061-5.45 1.83-8.36.65.771 1.301 1.55 1.88 2.37 4.561 6.47 7.061 14.64 5.561 22.54-.75 3.95-2.521 7.68-5.13 10.729-2.53 2.96-5.88 5.101-9.38 6.721.84-1.641 1.55-3.351 2.109-5.101 2.29-7.17-.31-15.439-5.91-20.35.771 2.09 1.091 4.35.811 6.57-.3 2.34-1.36 4.529-2.311 6.659-.512-2.79-.862-5.489-2.632-7.799z"/></g></svg>