<svg id="Capa_1" enable-background="new 0 0 512 512" height="512" viewBox="0 0 512 512" width="512" xmlns="http://www.w3.org/2000/svg"><g><g id="Female_Croupier_3_"><g><path d="m256 420c12.29 0 22.028-25.697 26.9-51.652-9.728-3.975-18.6-9.384-26.9-15.364-8.291 5.975-17.157 11.376-26.874 15.35 4.896 25.958 14.639 51.666 26.874 51.666z"/><path d="m133.704 300 34.997 212h174.593l34.997-212h-17.291v30c0 23.316-18.216 45.977-48.627 44.634-5.761 31.574-20.224 75.366-56.373 75.366s-50.612-43.792-56.373-75.366c-29.873 1.32-48.627-20.87-48.627-44.634v-30z"/><path d="m103.673 302.272c-32.075 7.643-57.673 37.126-57.673 72.728v122c0 8.291 6.709 15 15 15h77.291z"/><path d="m408.322 302.271-34.618 209.729h77.296c8.291 0 15-6.709 15-15v-122c0-35.909-25.794-65.133-57.678-72.729z"/></g></g><path d="m121 270h38.593c-15.036-22.227-23.593-48.173-23.593-75v-60c0-24.814 20.186-45 45-45 39.185 0 58.052-16.743 58.843-17.461 8.144-7.895 19.585-12.539 31.157-12.539 57.891 0 105 47.109 105 105v30c0 26.814-8.56 52.76-23.61 75h38.61c10.701 0 21.022 1.866 30.941 4.946-15.619-55.263-15.941-124.041-15.941-124.946 0-82.705-67.295-150-150-150s-150 67.295-150 150c0 .905-.324 69.677-15.941 124.942 9.917-3.076 20.238-4.942 30.941-4.942z"/><path d="m331 330c0 8.284-6.716 15-15 15-26.17 0-44.086-18.518-60-29.971-15.595 11.223-33.543 29.971-60 29.971-8.284 0-15-6.716-15-15v-30c0-8.284 6.716-15 15-15 24.049 0 42.085 16.106 59.985 30.044 17.454-13.344 35.597-30.044 60.015-30.044 8.284 0 15 6.716 15 15z"/><path d="m236.43 265.063c6.958 3.398 13.477 7.617 19.6 12.07 6.68-4.834 13.022-8.877 19.863-12.217 25.596-12.84 43.639-9.313 50.473-9.917 12.5-17.681 19.634-38.491 19.634-59.999v-30c0-41.353-33.647-75-75-75-3.896 0-7.72 1.597-10.518 4.307-1.084 1.054-27.114 25.693-79.482 25.693-8.291 0-15 6.709-15 15v60c0 21.511 7.136 42.327 19.622 60 7.262.643 24.714-2.955 50.808 10.063z"/></g></svg>