<svg id="Capa_1" enable-background="new 0 0 510 510" height="512" viewBox="0 0 510 510" width="512" xmlns="http://www.w3.org/2000/svg"><g id="XMLID_410_"><path id="XMLID_411_" d="m210 210h90v30h-90z"/><path id="XMLID_450_" d="m315 150h-120c-57.897 0-105 47.104-105 105 0 57.897 47.103 105 105 105h120c57.897 0 105-47.103 105-105 0-57.896-47.103-105-105-105zm-165 120h-30v-30h30zm60 60h-30v-30h30zm60 0h-30v-30h30zm60 0h-30v-30h30zm0-60h-150v-90h150zm60 0h-30v-30h30z"/><path id="XMLID_1310_" d="m315 60h-120c-107.523 0-195 87.477-195 195s87.477 195 195 195h120c107.523 0 195-87.477 195-195s-87.477-195-195-195zm0 330h-120c-74.44 0-135-60.56-135-135 0-74.439 60.56-135 135-135h120c74.439 0 135 60.561 135 135 0 74.44-60.561 135-135 135z"/></g></svg>