<svg id="Capa_1" enable-background="new 0 0 512 512" height="512" viewBox="0 0 512 512" width="512" xmlns="http://www.w3.org/2000/svg"><g><path d="m499.54 139.683c-18.148-3.119-32.438-17.408-35.557-35.557l-2.142-12.459h-62.841v328.667h62.843l2.142-12.459c3.119-18.149 17.408-32.438 35.557-35.557l12.458-2.142v-228.352z"/><path d="m369 91.666h-318.843l-2.141 12.46c-3.119 18.149-17.408 32.437-35.556 35.557l-12.46 2.141v228.352l12.46 2.141c18.148 3.119 32.438 17.408 35.556 35.557l2.141 12.46h318.843zm-247.334 104.334v53.333h-30v-53.333zm64.001 0v53.333h-30v-53.333zm45 91.667v30h-138.668v-30zm19-91.667v53.333h-30v-53.333zm64 0v53.333h-30v-53.333z"/></g></svg>