<svg id="Capa_1" enable-background="new 0 0 512 512" height="512" viewBox="0 0 512 512" width="512" xmlns="http://www.w3.org/2000/svg"><path d="m509.991 248.501-30.277-52.448v-60.553c0-5.359-2.859-10.312-7.501-12.991l-52.446-30.276-30.275-52.446c-2.68-4.641-7.632-7.5-12.991-7.5h-60.554l-52.448-30.278c-4.64-2.678-10.357-2.679-14.999 0l-52.447 30.277h-60.553c-5.359 0-10.312 2.859-12.991 7.501l-30.275 52.446-52.447 30.276c-4.642 2.679-7.501 7.631-7.501 12.991v60.553l-30.277 52.448c-2.679 4.641-2.679 10.357 0 14.998l30.276 52.448v60.553c0 5.359 2.859 10.312 7.501 12.991l52.447 30.276 30.276 52.446c2.679 4.642 7.631 7.501 12.991 7.501h60.554l52.447 30.277c2.32 1.339 4.91 2.009 7.5 2.009s5.179-.67 7.499-2.009l52.447-30.277h60.553c5.359 0 10.312-2.859 12.991-7.5l30.275-52.446 52.446-30.276c4.642-2.679 7.501-7.631 7.501-12.991v-60.553l30.277-52.448c2.68-4.642 2.68-10.358.001-14.999zm-103.439 1.655-17.852 80.339c-4.833 21.73-23.754 36.905-46.013 36.905h-199.154c-8.284 0-15-6.716-15-15v-128.533c0-8.284 6.716-15 15-15h60.435c13.009-7.768 20.965-21.656 20.965-36.992v-44.408c0-8.284 6.716-15 15-15h24.1c30.514 0 55.167 24.691 55.167 55.167v25.166h41.346c14.37 0 27.77 6.429 36.764 17.639 8.988 11.214 12.355 25.689 9.242 39.717z"/><path d="m360.546 222.8h-56.346c-8.284 0-15-6.716-15-15v-40.167c0-14.013-11.366-25.167-25.167-25.167h-9.1v29.408c0 24.638-12.102 47.08-32.133 60.571v104.955h119.888c8.092 0 14.971-5.517 16.728-13.417l17.851-80.332c1.132-5.101-.093-10.368-3.36-14.445-3.267-4.069-8.138-6.406-13.361-6.406z"/><path d="m158.533 238.867h34.267v98.533h-34.267z"/></svg>