<svg id="Layer_1" enable-background="new 0 0 32 32" height="512" viewBox="0 0 32 32" width="512" xmlns="http://www.w3.org/2000/svg"><g id="_x38_4"><path d="m22.3344727 27.7514954c1.0898438 0 1.9799805-.8900146 1.9799805-1.9799805v-2.1900024c0-1.0900269-.8901367-1.9800415-1.9799805-1.9800415h-16.7802735c-1.0898438 0-1.9799805.8900146-1.9799805 1.9800415v2.1900024c0 1.0899658.8901367 1.9799805 1.9799805 1.9799805z"/><path d="m27.4257813 7.9135437h-2.5c-.5527344 0-1 .4477539-1 1s.4472656 1 1 1h.25v4.0517578l-2.6640625.6396485v-7.706482c0-1.4599609-1.1901855-2.6499634-2.6601563-2.6499634h-11.8300781c-1.4599609 0-2.6499023 1.1900024-2.6499023 2.6499634v12.5800171h17.1401367v-2.8171387l3.8974609-.935791c.4492188-.1079102.7666016-.5097656.7666016-.972168v-4.8398437h.25c.5527344 0 1-.4477539 1-1s-.4472657-1-1-1zm-11.9208985 2.5849609v6.3599854h-3.1230469v-6.3599854zm-8.123291 5.709961v-5.0599976c0-.3599854.2900391-.6499634.6398926-.6499634h2.3603516v6.3599854h-2.3603516c-.3498535 0-.6398926-.289978-.6398926-.6500244zm13.130127 0c0 .3600464-.2900391.6500244-.6501465.6500244h-2.3566895v-6.3599854h2.3566895c.3601074 0 .6501465.289978.6501465.6499634z"/></g></svg>