<svg id="Capa_1" enable-background="new 0 0 511.106 511.106" height="512" viewBox="0 0 511.106 511.106" width="512" xmlns="http://www.w3.org/2000/svg"><g><path d="m255.553 89.264c-91.692 0-166.289 74.597-166.289 166.289s74.597 166.289 166.289 166.289 166.289-74.597 166.289-166.289-74.597-166.289-166.289-166.289zm112.33 181.289h-61.553c-5.077 17.155-18.622 30.7-35.777 35.776v61.554h-30v-61.554c-17.155-5.077-30.699-18.622-35.776-35.776h-61.554v-30h61.554c5.077-17.155 18.621-30.699 35.776-35.776v-61.554h30v61.554c17.155 5.077 30.7 18.621 35.777 35.776h61.553z"/><path d="m255.553 232.599c-12.656 0-22.953 10.297-22.953 22.954s10.297 22.954 22.953 22.954c12.657 0 22.954-10.297 22.954-22.954s-10.297-22.954-22.954-22.954z"/><path d="m451.274 270.553c-3.254 42.864-20.342 81.921-46.79 112.718l42.379 42.379c38.5-43.189 60.927-97.334 64.243-155.097z"/><path d="m59.832 240.553c3.254-42.864 20.342-81.921 46.79-112.718l-42.378-42.379c-38.5 43.189-60.928 97.334-64.244 155.097z"/><path d="m404.484 127.835c26.448 30.797 43.536 69.854 46.79 112.718h59.832c-3.316-57.763-25.743-111.908-64.243-155.097z"/><path d="m106.622 383.271c-26.448-30.797-43.536-69.854-46.79-112.718h-59.832c3.316 57.763 25.743 111.908 64.243 155.097z"/><path d="m270.553 59.832c42.864 3.254 81.921 20.342 112.718 46.79l42.379-42.379c-43.189-38.5-97.334-60.927-155.097-64.243z"/><path d="m383.271 404.484c-30.797 26.448-69.854 43.536-112.718 46.79v59.833c57.763-3.316 111.908-25.744 155.097-64.244z"/><path d="m127.835 106.622c30.797-26.448 69.854-43.536 112.718-46.79v-59.832c-57.763 3.316-111.907 25.743-155.097 64.243z"/><path d="m240.553 451.274c-42.864-3.254-81.921-20.342-112.718-46.79l-42.379 42.379c43.189 38.5 97.334 60.927 155.097 64.243z"/></g></svg>