<svg id="Solid" height="512" viewBox="0 0 64 64" width="512" xmlns="http://www.w3.org/2000/svg"><path d="m24.752 30.1a8.8 8.8 0 0 1 2.348-2.348l-7.7-18.592a28.946 28.946 0 0 0 -13.24 13.24z"/><path d="m59.183 44.366a28.774 28.774 0 0 0 0-18.732l-18.592 7.7a8.787 8.787 0 0 1 0 3.328z"/><path d="m36.9 27.752a8.8 8.8 0 0 1 2.348 2.348l18.592-7.7a28.946 28.946 0 0 0 -13.24-13.24z"/><path d="m27.1 42.248a8.8 8.8 0 0 1 -2.348-2.348l-18.592 7.7a28.946 28.946 0 0 0 13.24 13.24z"/><path d="m23.409 36.664a8.787 8.787 0 0 1 0-3.328l-18.592-7.7a28.774 28.774 0 0 0 0 18.732z"/><path d="m39.248 39.9a8.8 8.8 0 0 1 -2.348 2.348l7.7 18.592a28.946 28.946 0 0 0 13.24-13.24z"/><path d="m33.664 43.591a8.787 8.787 0 0 1 -3.328 0l-7.7 18.592a28.774 28.774 0 0 0 18.732 0z"/><path d="m32 29.75a5.25 5.25 0 1 0 5.25 5.25 5.256 5.256 0 0 0 -5.25-5.25zm0 7a1.75 1.75 0 1 1 1.75-1.75 1.751 1.751 0 0 1 -1.75 1.75z"/><path d="m27.135 2.673 3.25 7.8a1.749 1.749 0 0 0 3.23 0l3.25-7.8a1.749 1.749 0 0 0 -1.615-2.423h-6.5a1.749 1.749 0 0 0 -1.615 2.423z"/><path d="m38.825 7.069-1.979 4.75a5.25 5.25 0 0 1 -9.692 0l-1.979-4.75q-1.294.317-2.541.748l7.7 18.592a8.787 8.787 0 0 1 3.328 0l7.7-18.592q-1.243-.43-2.537-.748z"/></svg>