<svg height="512" viewBox="0 0 32 32" width="512" xmlns="http://www.w3.org/2000/svg"><g id="redeem"><path d="m29 5h-26a3 3 0 0 0 -3 3v16a3 3 0 0 0 3 3h26a3 3 0 0 0 3-3v-16a3 3 0 0 0 -3-3zm-19 18h-4a1 1 0 0 1 0-2h4a1 1 0 0 1 0 2zm.71-5.71a1 1 0 0 1 0 1.42 1 1 0 0 1 -1.42 0l-1.29-1.3-1.29 1.3a1 1 0 0 1 -1.42 0 1 1 0 0 1 0-1.42l1.3-1.29-1.3-1.29a1 1 0 0 1 1.42-1.42l1.29 1.3 1.29-1.3a1 1 0 0 1 1.42 1.42l-1.3 1.29zm-.71-6.29h-4a1 1 0 0 1 0-2h4a1 1 0 0 1 0 2zm8.71 6.29a1 1 0 0 1 0 1.42 1 1 0 0 1 -1.42 0l-1.29-1.3-1.29 1.3a1 1 0 0 1 -1.42 0 1 1 0 0 1 0-1.42l1.3-1.29-1.3-1.29a1 1 0 0 1 1.42-1.42l1.29 1.3 1.29-1.3a1 1 0 0 1 1.42 1.42l-1.3 1.29zm8 0a1 1 0 0 1 0 1.42 1 1 0 0 1 -1.42 0l-1.29-1.3-1.29 1.3a1 1 0 0 1 -1.42 0 1 1 0 0 1 0-1.42l1.3-1.29-1.3-1.29a1 1 0 0 1 1.42-1.42l1.29 1.3 1.29-1.3a1 1 0 0 1 1.42 1.42l-1.3 1.29z"/></g></svg>