<svg id="Capa_1" enable-background="new 0 0 512 512" height="512" viewBox="0 0 512 512" width="512" xmlns="http://www.w3.org/2000/svg"><g><path d="m467 141h-40.605l-20.224-53.931c-16.65-44.402-59.09-74.069-106.882-74.069h-86.578c-47.419 0-90.1 29.317-106.882 74.069l-20.224 53.931h-40.605c-24.813 0-45 20.187-45 45v268c0 24.813 20.187 45 45 45h422c24.813 0 45-20.187 45-45v-268c0-24.813-20.187-45-45-45zm-113 64h74.899c10.813 0 18.086 11.13 13.731 21.036l-59.85 136.148c-3.342 7.605-12.205 11.02-19.768 7.696-7.584-3.334-11.029-12.185-7.695-19.769l50.603-115.111h-51.92c-8.284 0-15-6.716-15-15s6.716-15 15-15zm-48.931-114.47c.894-8.626 8.833-14.94 17.86-13.24 8.192 1.707 13.323 9.397 11.78 17.64-1.693 8.08-9.301 13.34-17.641 11.78-7.972-1.665-12.751-8.932-11.999-16.18zm-64 0c.894-8.623 8.831-14.941 17.86-13.24 8.137 1.695 13.329 9.365 11.78 17.64-1.707 8.143-9.362 13.328-17.641 11.78-7.957-1.661-12.753-8.914-11.999-16.18zm-23.069 114.47h74.899c10.813 0 18.086 11.13 13.731 21.036l-59.85 136.148c-3.342 7.605-12.205 11.02-19.768 7.696-7.584-3.334-11.029-12.185-7.695-19.769l50.603-115.111h-51.92c-8.284 0-15-6.716-15-15s6.716-15 15-15zm-40.931-114.48c.926-8.752 8.958-14.907 17.86-13.23 8.435 1.757 13.388 9.845 11.771 17.64-1.449 7.66-8.997 13.395-17.631 11.78-7.989-1.668-12.739-8.922-12-16.19zm-95.069 114.48h74.899c10.813 0 18.086 11.13 13.731 21.036l-59.85 136.148c-3.342 7.605-12.205 11.02-19.768 7.696-7.584-3.334-11.029-12.185-7.695-19.769l50.603-115.111h-51.92c-8.284 0-15-6.716-15-15s6.716-15 15-15zm350 230h-352c-8.284 0-15-6.716-15-15s6.716-15 15-15h352c8.284 0 15 6.716 15 15s-6.716 15-15 15z"/></g></svg>